# xmcd
#
# Track frame offsets:
#	150
#	22699
#	42358
#	63501
#	105713
#	124318
#	142492
#	160600
#	184252
#	208938
#	230671
#	250860
#	279409
#	301915
#	320886
#	350110
#
# Disc length: 4820 seconds
#
# Revision: 0
# Processed by: cddbd v1.5.2PL0 Copyright (c) Steve Scherf et al.
# Submitted via: EasyCDDAExtractor 8.2.3.1
#
DISCID=f912d210
DTITLE=Various Artist - On the Road Again 2-th mile
DYEAR=2001
DGENRE=Blues
TTITLE0=OMAR and The HOWLERS - Sugar Ditch
TTITLE1=The BONE - Let's Straighten It Out
TTITLE2=EDDIE KIRKLAND - Lonely Street
TTITLE3=The HOAX - Don't Shake My Hand
TTITLE4=BLUES Co - What Love Can Do
TTITLE5=PETER GARSTENAUER - Talking About Things
TTITLE6=GREGG ALLMAN - House of Blues
TTITLE7=JOHN MAYALL - Don't Turn Your Back
TTITLE8=PINETOP PERKINS - Anna Lee
TTITLE9=JAMES SOLBERG - What's Comin' Down
TTITLE10=COLIN JAMES - Tin Pan Alley
TTITLE11=MELVIN TAYLOR - A Quitter Never Wins
TTITLE12=NEAL BLACK - As the Years Go Passing By
TTITLE13=RICK VITO - Meet Me at Midnite
TTITLE14=CHRIS COBB - Albert's Blues
TTITLE15=VARGAS - Next Time
EXTD=
EXTT0=
EXTT1=
EXTT2=
EXTT3=
EXTT4=
EXTT5=
EXTT6=
EXTT7=
EXTT8=
EXTT9=
EXTT10=
EXTT11=
EXTT12=
EXTT13=
EXTT14=
EXTT15=
PLAYORDER=
